HIERARCHY
ROOT Hips
{
	OFFSET 0.000000 0.000000 0.000000
	CHANNELS 6 Xposition Yposition Zposition Zrotation Yrotation Xrotation 
	JOINT LowerBack
	{
		OFFSET 0.000000 0.000000 0.000000
		CHANNELS 3 Zrotation Yrotation Xrotation
		JOINT Spine
		{
			OFFSET 0.028270 2.035590 -0.193380
			CHANNELS 3 Zrotation Yrotation Xrotation
			JOINT Spine1
			{
				OFFSET 0.056720 2.048850 -0.042750
				CHANNELS 3 Zrotation Yrotation Xrotation
				JOINT Neck
				{
					OFFSET 0.000000 0.000000 0.000000
					CHANNELS 3 Zrotation Yrotation Xrotation
					JOINT Neck1
					{
						OFFSET -0.054170 1.746240 0.172020
						CHANNELS 3 Zrotation Yrotation Xrotation
						JOINT Head
						{
							OFFSET 0.104070 1.761360 -0.123970
							CHANNELS 3 Zrotation Yrotation Xrotation
							End Site
							{
								OFFSET 0.000000 0.000000 0.000000
							}
						}
					}
				}
				JOINT LeftShoulder
				{
					OFFSET 0.000000 0.000000 0.000000
					CHANNELS 3 Zrotation Yrotation Xrotation
					JOINT LeftArm
					{
						OFFSET 3.362410 1.200890 -0.311210
						CHANNELS 3 Zrotation Yrotation Xrotation
						JOINT LeftForeArm
						{
							OFFSET 4.983000 -0.000000 -0.000000
							CHANNELS 3 Zrotation Yrotation Xrotation
							JOINT LeftHand
							{
								OFFSET 3.483560 -0.000000 -0.000000
								CHANNELS 3 Zrotation Yrotation Xrotation
								JOINT LeftFingerBase
								{
									OFFSET 0.000000 0.000000 0.000000
									CHANNELS 3 Zrotation Yrotation Xrotation
									JOINT LeftHandIndex1
									{
										OFFSET 0.715260 -0.000000 -0.000000
										CHANNELS 3 Zrotation Yrotation Xrotation
										End Site
										{
											OFFSET 0.000000 0.000000 0.000000
										}
									}
								}
								JOINT LThumb
								{
									OFFSET 0.000000 0.000000 0.000000
									CHANNELS 3 Zrotation Yrotation Xrotation
									End Site
									{
										OFFSET 0.000000 0.000000 0.000000
									}
								}
							}
						}
					}
				}
				JOINT RightShoulder
				{
					OFFSET 0.000000 0.000000 0.000000
					CHANNELS 3 Zrotation Yrotation Xrotation
					JOINT RightArm
					{
						OFFSET -3.136600 1.374050 -0.404650
						CHANNELS 3 Zrotation Yrotation Xrotation
						JOINT RightForeArm
						{
							OFFSET -5.241900 -0.000000 -0.000000
							CHANNELS 3 Zrotation Yrotation Xrotation
							JOINT RightHand
							{
								OFFSET -3.444170 -0.000000 -0.000000
								CHANNELS 3 Zrotation Yrotation Xrotation
								JOINT RightFingerBase
								{
									OFFSET 0.000000 0.000000 0.000000
									CHANNELS 3 Zrotation Yrotation Xrotation
									JOINT RightHandIndex1
									{
										OFFSET -0.622530 -0.000000 -0.000000
										CHANNELS 3 Zrotation Yrotation Xrotation
										End Site
										{
											OFFSET 0.000000 0.000000 0.000000
										}
									}
								}
								JOINT RThumb
								{
									OFFSET 0.000000 0.000000 0.000000
									CHANNELS 3 Zrotation Yrotation Xrotation
									End Site
									{
										OFFSET 0.000000 0.000000 0.000000
									}
								}
							}
						}
					}
				}
			}
		}
	}
}
}
MOTION
Frames: 13
Frame Time: 0.008333
4.074326 17.352481 0.752363 -173.897001 -40.157048 -175.618828 2.259217 -4.784258 -9.744995 -0.109728 -5.153025 -4.598172 -7.389909 -4.990205 -0.674957 15.774733 -12.273488 -0.639189 -2.223684 -0.273404 2.006874 0.000000 0.000000 0.000000 8.521036 -8.779008 4.677810 -28.261228 -5.618698 -31.009758 -0.840205 -41.979231 -0.087476 12.335848 1.873999 0.161458 -0.109096 0.398094 0.000000 0.000000 0.000000 0.000000 0.000000 0.000000 0.000000 9.355191 -9.764321 -7.108897 91.283615 50.560193 45.605652 -179.263578 62.079362 179.790946 -20.172049 9.118005 -1.837654 0.597657 -0.908529 -0.000000 0.000000 0.000000 0.000000 0.000000 0.000000 0.000000 
4.078954 17.353258 0.769766 -173.833991 -39.291983 -175.618737 2.118770 -5.090100 -9.631878 -0.097273 -5.411283 -4.464517 -7.279431 -5.229777 -0.273638 16.277730 -12.799268 -0.845324 -2.108217 -0.264175 1.947175 0.000000 0.000000 0.000000 9.970712 -9.435256 4.961536 -25.519451 -6.961725 -31.128171 -1.240519 -31.549017 -0.078112 11.360591 1.797822 0.142807 -0.121191 0.380521 0.000000 0.000000 0.000000 0.000000 0.000000 0.000000 0.000000 9.734337 -10.738813 -7.126085 90.129129 51.166165 44.739127 -179.242060 61.880026 179.793643 -20.199790 8.776947 -1.773142 0.596270 -0.887028 -0.000000 0.000000 0.000000 0.000000 0.000000 0.000000 0.000000 
4.082915 17.355402 0.787431 -173.750108 -38.512043 -175.581360 1.922463 -5.369282 -9.501825 -0.099592 -5.644247 -4.344996 -7.173912 -5.448562 0.055985 16.805738 -13.343535 -1.043514 -2.003627 -0.255697 1.890802 0.000000 0.000000 0.000000 11.483282 -10.056602 5.111875 -22.963395 -8.395527 -31.754535 -1.688545 -21.330767 -0.066370 9.974676 1.558292 0.105820 -0.136128 0.363341 0.000000 0.000000 0.000000 0.000000 0.000000 0.000000 0.000000 10.182543 -11.738502 -7.084050 88.905831 51.732646 43.759367 -179.217933 61.681192 179.795880 -20.221379 8.442397 -1.709303 0.593565 -0.867094 -0.000000 0.000000 0.000000 0.000000 0.000000 0.000000 0.000000 
4.085685 17.359056 0.804909 -173.652517 -37.797880 -175.500071 1.681824 -5.621545 -9.359175 -0.118052 -5.854567 -4.249097 -7.089013 -5.651815 0.286748 17.357620 -13.900932 -1.218903 -1.914014 -0.248452 1.842868 0.000000 0.000000 0.000000 13.025777 -10.721978 5.108524 -20.604436 -9.593411 -33.365510 -2.088118 -11.920302 -0.053473 8.348817 1.156976 0.060082 -0.149170 0.347420 -0.000000 0.000000 0.000000 0.000000 0.000000 0.000000 0.000000 10.713230 -12.735476 -6.970715 87.614921 52.245460 42.689938 -179.197236 61.490575 179.797659 -20.232075 8.128384 -1.648740 0.589956 -0.849542 -0.000000 0.000000 0.000000 0.000000 0.000000 0.000000 0.000000 
4.086820 17.364320 0.821882 -173.556153 -37.126472 -175.371102 1.432033 -5.850479 -9.211167 -0.146585 -6.049057 -4.177110 -7.031419 -5.846158 0.427161 17.901569 -14.462535 -1.378268 -1.838254 -0.242253 1.801791 0.000000 0.000000 0.000000 14.572100 -11.398002 4.972296 -18.402594 -10.371267 -36.465125 -2.324316 -3.737405 -0.042234 6.917585 0.599818 0.016269 -0.155317 0.335073 -0.000000 0.000000 0.000000 0.000000 0.000000 0.000000 0.000000 11.285952 -13.701312 -6.808490 86.344261 52.679967 41.619441 -179.180581 61.324129 179.799125 -20.224925 7.860256 -1.595665 0.585467 -0.834972 -0.000000 0.000000 0.000000 0.000000 0.000000 0.000000 0.000000 
4.086099 17.370924 0.837996 -173.482326 -36.473851 -175.196600 1.222998 -6.060594 -9.071161 -0.174216 -6.235295 -4.123956 -7.000942 -6.036731 0.509948 18.379363 -15.015326 -1.535759 -1.772321 -0.236606 1.763423 0.000000 0.000000 0.000000 16.048988 -12.018944 4.771368 -16.244181 -10.586589 -40.959696 -2.342926 2.896966 -0.035724 6.181808 -0.011446 -0.019048 -0.154885 0.327505 -0.000000 0.000000 0.000000 0.000000 0.000000 0.000000 0.000000 11.817423 -14.605268 -6.639871 85.245023 53.000245 40.678656 -179.164688 61.206078 179.800491 -20.193065 7.668063 -1.555284 0.579825 -0.823779 -0.000000 0.000000 0.000000 0.000000 0.000000 0.000000 0.000000 
4.083510 17.378383 0.853018 -173.458245 -35.784399 -174.982557 1.123871 -6.305506 -8.962040 -0.161862 -6.460685 -4.082263 -6.904342 -6.268141 0.620947 18.617346 -15.548983 -1.748131 -1.742533 -0.232233 1.712001 0.000000 0.000000 0.000000 17.669227 -12.702228 4.697133 -16.769009 -7.823268 -44.752509 -2.144321 0.997423 -0.042658 6.319996 2.912891 0.146550 -0.149501 0.312610 0.000000 0.000000 0.000000 0.000000 0.000000 0.000000 0.000000 12.129616 -15.283440 -6.519832 84.515813 53.230550 40.061161 -179.194228 61.179696 179.802070 -20.126338 7.571228 -1.531223 0.578273 -0.818418 -0.000000 0.000000 0.000000 0.000000 0.000000 0.000000 0.000000 
4.079363 17.386159 0.866846 -173.472471 -35.096350 -174.739699 1.094843 -6.523495 -8.872265 -0.134587 -6.668444 -4.046682 -6.805142 -6.483160 0.726017 18.741792 -16.057963 -1.977070 -1.704192 -0.226902 1.656826 0.000000 0.000000 0.000000 19.148598 -13.087506 4.615645 -17.219306 -5.584439 -48.255047 -1.881384 -1.179068 -0.051831 7.107246 5.227897 0.311831 -0.149246 0.302788 0.000000 0.000000 0.000000 0.000000 0.000000 0.000000 0.000000 12.282217 -15.925929 -6.460673 84.131777 53.292983 39.704956 -179.197482 61.199598 179.803808 -20.032003 7.571719 -1.523190 0.573257 -0.815210 -0.000000 0.000000 0.000000 0.000000 0.000000 0.000000 0.000000 
4.073817 17.393846 0.879405 -173.518395 -34.422988 -174.476790 1.116900 -6.698455 -8.798576 -0.100241 -6.842368 -4.011106 -6.717075 -6.664395 0.835586 18.794254 -16.543752 -2.223855 -1.646059 -0.219813 1.596772 0.000000 0.000000 0.000000 20.442136 -13.029780 4.505918 -16.856829 -4.642792 -52.463556 -1.528970 -1.803368 -0.060273 8.340626 5.853206 0.411502 -0.150278 0.303333 0.000000 0.000000 0.000000 0.000000 0.000000 0.000000 0.000000 12.301851 -16.579296 -6.465901 84.047962 53.185007 39.560808 -179.160199 61.233275 179.805705 -19.916115 7.650628 -1.527609 0.563663 -0.812689 -0.000000 0.000000 0.000000 0.000000 0.000000 0.000000 0.000000 
4.067195 17.400973 0.890590 -173.587304 -33.773935 -174.201211 1.168128 -6.830396 -8.738081 -0.061725 -6.980155 -3.970384 -6.633937 -6.808913 0.967131 18.800652 -17.008439 -2.498144 -1.566908 -0.210651 1.528622 0.000000 0.000000 0.000000 21.599267 -12.520000 4.383411 -15.713858 -4.896025 -57.861895 -1.056128 -1.132547 -0.067316 9.767270 4.754296 0.384278 -0.149118 0.316702 0.000000 0.000000 0.000000 0.000000 0.000000 0.000000 0.000000 12.214691 -17.241990 -6.527251 84.182328 52.931870 39.554963 -179.085478 61.246196 179.807689 -19.784806 7.779175 -1.539480 0.550312 -0.810104 -0.000000 0.000000 0.000000 0.000000 0.000000 0.000000 0.000000 
4.060036 17.407208 0.900584 -173.673396 -33.160467 -173.920098 1.233069 -6.922021 -8.681914 -0.018876 -7.082563 -3.913536 -6.545553 -6.916409 1.160141 18.791298 -17.460098 -2.831557 -1.462511 -0.198472 1.442941 0.000000 0.000000 0.000000 22.594050 -11.419734 4.281600 -13.708813 -6.324286 -64.235682 -0.492039 0.582613 -0.072440 10.985909 2.016173 0.161977 -0.144385 0.345264 0.000000 0.000000 0.000000 0.000000 0.000000 0.000000 0.000000 12.052658 -17.911389 -6.648188 84.460635 52.584880 39.631629 -178.976508 61.207031 179.809782 -19.645446 7.930745 -1.554104 0.534186 -0.806540 -0.000000 0.000000 0.000000 0.000000 0.000000 0.000000 0.000000 
4.052683 17.412038 0.909666 -173.769582 -32.594857 -173.641273 1.303919 -6.976096 -8.625564 0.027057 -7.152140 -3.836217 -6.455564 -6.988995 1.431556 18.790646 -17.901247 -3.230587 -1.329813 -0.182852 1.337618 0.000000 0.000000 0.000000 23.315779 -9.724521 4.240752 -10.522654 -8.724497 -69.540501 -0.051330 3.550782 -0.074745 11.592892 -2.070927 -0.253785 -0.144453 0.389715 -0.000000 0.000000 0.000000 0.000000 0.000000 0.000000 0.000000 11.840207 -18.573102 -6.820496 84.826352 52.173796 39.743698 -178.836537 61.097720 179.811910 -19.505375 8.084690 -1.568377 0.516076 -0.801535 -0.000000 0.000000 0.000000 0.000000 0.000000 0.000000 0.000000 
4.045674 17.415149 0.917543 -173.887047 -32.052136 -173.357931 1.405904 -7.045573 -8.576662 0.109276 -7.231131 -3.768698 -6.250995 -7.076338 1.706556 18.633407 -18.320474 -3.638022 -1.230323 -0.168858 1.229597 0.000000 0.000000 0.000000 24.034303 -7.987482 4.176484 -10.146183 -10.161460 -70.085816 0.246710 -0.065477 -0.081382 11.703787 -2.463825 -0.300970 -0.152397 0.425679 -0.000000 0.000000 0.000000 0.000000 0.000000 0.000000 0.000000 11.448753 -19.084526 -6.999718 85.271342 51.729076 39.935035 -178.732953 60.959518 179.813769 -19.365213 8.220368 -1.579810 0.502967 -0.798901 -0.000000 0.000000 0.000000 0.000000 0.000000 0.000000 0.000000 
